PathFileType	4	(X/Y/Z)	/Users/itak/Documents/Research/Walk-IL/dataset/trc/00011_00004.trc
DataRate	CameraRate	NumFrames	NumMarkers	Units	OrigDataRate	OrigDataStartFrame	OrigNumFrames
100.000000	100.000000	4	53	mm	100.000000	413	551
Frame#	Time	RPSI			LPSI			L3			STRN			T10			C7			CLAV			RBAK			LBAK			LSHO			LUPA			LAEL			LAOL			LWTS			LWPS			LFRA			LIFD			LHPS			LHTS			RSHO			RUPA			RAEL			RAOL			RWTS			RWPS			RFRA			RIFD			RHTS			RHPS			RBHD			LFHD			RFHD			LBHD			LHIP			RHIP			RASI			LASI			LKNE			LTHI			LANK			LTIP			LTOE			LMT1			LMT5			LHEE			RKNE			RTHI			RANK			RTIP			RTOE			RMT1			RMT5			RHEE			
		X1	Y1	Z1	X2	Y2	Z2	X3	Y3	Z3	X4	Y4	Z4	X5	Y5	Z5	X6	Y6	Z6	X7	Y7	Z7	X8	Y8	Z8	X9	Y9	Z9	X10	Y10	Z10	X11	Y11	Z11	X12	Y12	Z12	X13	Y13	Z13	X14	Y14	Z14	X15	Y15	Z15	X16	Y16	Z16	X17	Y17	Z17	X18	Y18	Z18	X19	Y19	Z19	X20	Y20	Z20	X21	Y21	Z21	X22	Y22	Z22	X23	Y23	Z23	X24	Y24	Z24	X25	Y25	Z25	X26	Y26	Z26	X27	Y27	Z27	X28	Y28	Z28	X29	Y29	Z29	X30	Y30	Z30	X31	Y31	Z31	X32	Y32	Z32	X33	Y33	Z33	X34	Y34	Z34	X35	Y35	Z35	X36	Y36	Z36	X37	Y37	Z37	X38	Y38	Z38	X39	Y39	Z39	X40	Y40	Z40	X41	Y41	Z41	X42	Y42	Z42	X43	Y43	Z43	X44	Y44	Z44	X45	Y45	Z45	X46	Y46	Z46	X47	Y47	Z47	X48	Y48	Z48	X49	Y49	Z49	X50	Y50	Z50	X51	Y51	Z51	X52	Y52	Z52	X53	Y53	Z53	

414	4.13	-931.147705078125	1056.693115234375	-131.9860534667969	-942.157958984375	1057.719970703125	-295.0669250488281	-937.0751342773438	1120.315551757812	-216.6199798583984	-694.3543701171875	1299.676513671875	-233.3251800537109	-941.345947265625	1267.237426757812	-210.8751220703125	-883.4087524414062	1531.194458007812	-227.7993621826172	-729.4894409179688	1428.490600585938	-236.9898376464844	-934.2376708984375	1398.08935546875	-140.7769470214844	-911.87353515625	1489.623779296875	-323.2384338378906	-815.8074951171875	1489.640258789062	-406.2721862792969	-865.0279541015625	1370.046630859375	-480.1778259277344	-897.1192016601562	1159.0244140625	-512.41357421875	-940.788330078125	1146.79541015625	-416.9006652832031	-816.1505126953125	901.3080444335938	-480.2087707519531	-899.360595703125	891.6905517578125	-510.5567321777344	-892.984375	1042.9501953125	-525.0824584960938	-795.4966430664062	714.5093994140625	-474.7960815429688	-870.3677368164062	801.28515625	-518.259521484375	-801.5230102539062	807.891845703125	-500.4797668457031	-790.1860961914062	1515.159912109375	-62.28149795532227	-797.1865234375	1442.995483398438	12.27723217010498	-818.0908813476562	1173.057495117188	46.14908599853516	-841.806396484375	1144.191650390625	-47.51523590087891	-659.3355712890625	940.8989868164062	-31.71016693115234	-700.8687744140625	912.811767578125	45.51913833618164	-791.4517822265625	1097.208251953125	55.44128036499023	-606.6353149414062	761.4995727539062	-58.74954986572266	-602.91455078125	839.5301513671875	-32.70484161376953	-643.2518920898438	823.80322265625	28.41107749938965	-815.8939208984375	1704.982055664062	-152.6379547119141	-650.2401733398438	1717.836181640625	-283.7611694335938	-644.0152587890625	1716.494018554688	-185.5449523925781	-832.2689819335938	1711.557495117188	-296.4801635742188	-849.3263549804688	960.6840209960938	-411.1042175292969	-825.7446899414062	937.7586059570312	-35.99325942993164	-720.4925537109375	965.784912109375	-112.7458114624023	-733.3790893554688	998.4202270507812	-345.7958068847656	-692.0767211914062	538.4403076171875	-356.0688781738281	-752.303955078125	660.7007446289062	-396.7287902832031	-703.8786010742188	42.62758255004883	-362.8406372070312	-721.8087768554688	290.0171203613281	-377.25439453125	-493.0858764648438	75.22771453857422	-283.9256286621094	-552.4011840820312	71.50089263916016	-270.1594848632812	-580.2673950195312	62.66401290893555	-372.847412109375	-777.0042724609375	39.79917907714844	-312.9284057617188	-871.5560302734375	503.9991149902344	-88.18338775634766	-823.2827758789062	770.7544555664062	-43.87685394287109	-1089.417724609375	51.27349853515625	-122.7513275146484	-921.9313354492188	385.1463928222656	-90.37503814697266	-857.7091674804688	46.09906387329102	-157.9014739990234	-919.9774780273438	51.37364196777344	-189.5880584716797	-940.09619140625	43.52729415893555	-94.24649810791016	-1144.682739257812	59.31273651123047	-169.5319213867188	
415	4.14	-937.3235473632812	1057.159545898438	-130.3663024902344	-948.3002319335938	1058.286376953125	-293.3695983886719	-943.0181884765625	1120.6943359375	-214.9571990966797	-699.7003173828125	1299.417846679688	-231.1082153320312	-946.8147583007812	1267.646118164062	-208.7674255371094	-888.1332397460938	1531.457153320312	-225.6343688964844	-734.476806640625	1428.331665039062	-234.7354736328125	-939.3280029296875	1398.477172851562	-138.6668548583984	-916.6774291992188	1490.015380859375	-321.1328735351562	-820.5108032226562	1489.78759765625	-404.0513916015625	-869.5410766601562	1370.2734375	-478.1292724609375	-900.8340454101562	1159.1748046875	-510.6891479492188	-944.8314208984375	1146.531494140625	-415.38427734375	-815.9366455078125	902.987548828125	-478.2943420410156	-898.9188842773438	891.8789672851562	-508.8433227539062	-895.12548828125	1043.216918945312	-523.4198608398438	-791.753173828125	716.7024536132812	-472.9771118164062	-868.1715698242188	802.0554809570312	-516.55419921875	-799.4960327148438	809.992431640625	-498.6045227050781	-794.998779296875	1515.1796875	-60.09989929199219	-802.2784423828125	1443.067504882812	14.4885425567627	-824.2162475585938	1173.333984375	48.7363395690918	-848.0398559570312	1144.423583984375	-44.92081832885742	-667.5472412109375	939.4090576171875	-28.03463745117188	-709.4342041015625	912.0762939453125	49.23949813842773	-798.2664794921875	1097.38818359375	58.24956130981445	-616.7931518554688	759.3135986328125	-54.29862976074219	-612.1702270507812	837.4525756835938	-28.54327392578125	-652.703369140625	822.440673828125	32.59836959838867	-820.2337036132812	1705.115844726562	-150.4924621582031	-654.7630615234375	1717.57958984375	-281.9112243652344	-648.3804321289062	1716.333374023438	-183.6824645996094	-836.8404541015625	1711.576782226562	-294.3346252441406	-855.5581665039062	961.1051025390625	-409.7181701660156	-832.275146484375	937.7776489257812	-34.44322204589844	-726.9143676757812	965.6101684570312	-111.0716171264648	-739.68603515625	998.393798828125	-344.1211242675781	-698.453369140625	538.9166870117188	-355.3010864257812	-758.7166748046875	660.9064331054688	-395.7828674316406	-704.5892333984375	43.22924041748047	-362.5589904785156	-726.2833251953125	290.5510559082031	-376.8011169433594	-494.7442626953125	80.02006530761719	-283.50390625	-554.0181884765625	75.10259246826172	-269.8059997558594	-581.4560546875	65.76259613037109	-372.5238342285156	-777.6782836914062	38.70784759521484	-312.8543090820312	-876.984130859375	504.0488891601562	-87.18850708007812	-829.614501953125	770.853759765625	-42.28578567504883	-1089.900146484375	49.74829483032227	-123.0078125	-926.1406860351562	384.8952941894531	-89.85693359375	-857.8983154296875	46.15466690063477	-157.9076232910156	-920.2482299804688	51.13174438476562	-189.7381286621094	-940.3314208984375	43.56755065917969	-94.35378265380859	-1145.144287109375	56.8957405090332	-169.9282379150391	
416	4.15	-943.3439331054688	1057.762084960938	-128.8130798339844	-954.331298828125	1058.938110351562	-291.7410278320312	-948.837890625	1121.177856445312	-213.3782043457031	-704.9859619140625	1299.305053710938	-228.9740447998047	-952.22412109375	1268.13525390625	-206.7619781494141	-892.83251953125	1531.820922851562	-223.5008544921875	-739.4224243164062	1428.31201171875	-232.5433959960938	-944.362548828125	1398.934814453125	-136.6097564697266	-921.4625244140625	1490.514526367188	-319.0638427734375	-825.2067260742188	1490.074951171875	-401.8829956054688	-874.044189453125	1370.643798828125	-476.1219482421875	-904.5670776367188	1159.464721679688	-509.0072937011719	-948.9159545898438	1146.425415039062	-413.9085083007812	-815.8295288085938	904.85400390625	-476.3018188476562	-898.5361938476562	892.2578125	-507.0928955078125	-897.2959594726562	1043.638671875	-521.7577514648438	-788.1871948242188	719.1472778320312	-470.9608764648438	-866.0772094726562	803.0399780273438	-514.7511596679688	-797.6171875	812.2520751953125	-496.6290283203125	-799.7947998046875	1515.282958984375	-57.95876693725586	-807.3419799804688	1443.222778320312	16.660888671875	-830.3549194335938	1173.703247070312	51.28654098510742	-854.2472534179688	1144.741088867188	-42.3574333190918	-675.8165283203125	937.984375	-24.31085968017578	-718.0758056640625	911.4408569335938	52.99350357055664	-805.109130859375	1097.664428710938	61.03848648071289	-626.9658813476562	757.263427734375	-49.75632095336914	-621.5146484375	835.4590454101562	-24.3115177154541	-662.2496337890625	821.1702880859375	36.84744644165039	-824.5502319335938	1705.384399414062	-148.3778381347656	-659.2523193359375	1717.428955078125	-280.0722961425781	-652.7164916992188	1716.273071289062	-181.8286743164062	-841.3753662109375	1711.739135742188	-292.2136535644531	-861.6950073242188	961.5626831054688	-408.373779296875	-838.6001586914062	938.009521484375	-32.98137283325195	-733.1498413085938	965.603515625	-109.5061874389648	-745.8898315429688	998.4119262695312	-342.5586547851562	-705.0208129882812	539.3560791015625	-354.599609375	-765.34765625	661.068359375	-394.9483642578125	-705.42529296875	43.85686111450195	-362.2718811035156	-730.9420166015625	291.0972595214844	-376.3776245117188	-496.571533203125	84.90792083740234	-283.2388000488281	-555.7705078125	78.82021331787109	-269.5534973144531	-582.8389282226562	68.924560546875	-372.2828063964844	-778.38720703125	37.623779296875	-312.7169799804688	-882.1743774414062	504.29052734375	-86.09591674804688	-835.7467041015625	771.1670532226562	-40.6682243347168	-1090.307006835938	48.49186325073242	-123.0391693115234	-930.1242065429688	384.8440246582031	-89.21328735351562	-858.1058959960938	46.24372482299805	-157.8937683105469	-920.5147705078125	50.97383499145508	-189.8220062255859	-940.5328979492188	43.57393646240234	-94.40484619140625	-1145.528930664062	54.85383605957031	-170.0414581298828	
417	4.16	-949.1935424804688	1058.500366210938	-127.3327789306641	-960.2264404296875	1059.658813476562	-290.1914367675781	-954.5150146484375	1121.760986328125	-211.8910675048828	-710.205810546875	1299.3447265625	-226.9322357177734	-957.5549926757812	1268.705932617188	-204.8737640380859	-897.5045776367188	1532.286743164062	-221.412353515625	-744.3187255859375	1428.437622070312	-230.4253387451172	-949.3426513671875	1399.462768554688	-134.6246643066406	-926.22509765625	1491.121459960938	-317.0465698242188	-829.8933715820312	1490.5009765625	-399.7806396484375	-878.5330200195312	1371.15087890625	-474.1669006347656	-908.318603515625	1159.886840820312	-507.3782653808594	-953.0297241210938	1146.46923828125	-412.4788513183594	-815.8469848632812	906.8871459960938	-474.2375793457031	-898.23291015625	892.8198852539062	-505.3135986328125	-899.4977416992188	1044.205200195312	-520.1018676757812	-784.838623046875	721.81591796875	-468.7401123046875	-864.1142578125	804.2206420898438	-512.8533935546875	-795.9083251953125	814.66064453125	-494.5424499511719	-804.5796508789062	1515.465698242188	-55.86432647705078	-812.3800048828125	1443.455444335938	18.7829647064209	-836.4981079101562	1174.15625	53.78924560546875	-860.4202270507812	1145.1328125	-39.83677291870117	-684.1255493164062	936.6201782226562	-20.54728126525879	-726.7838134765625	910.9019775390625	56.77124786376953	-811.9524536132812	1098.029541015625	63.80356216430664	-637.1303100585938	755.3399047851562	-45.12117385864258	-630.9281616210938	833.5501708984375	-20.01173400878906	-671.8800659179688	819.9856567382812	41.1527099609375	-828.8449096679688	1705.785034179688	-146.298828125	-663.7034301757812	1717.394897460938	-278.2455749511719	-657.02587890625	1716.31640625	-179.9853515625	-845.8733520507812	1712.04638671875	-290.1176147460938	-867.7299194335938	962.0518188476562	-407.0711059570312	-844.7058715820312	938.460693359375	-31.59855842590332	-739.1795654296875	965.7708740234375	-108.0463790893555	-751.9703369140625	998.4817504882812	-341.1065063476562	-711.7186279296875	539.7718505859375	-353.9519348144531	-772.16064453125	661.1940307617188	-394.2304382324219	-706.4649658203125	44.51549911499023	-361.9788208007812	-735.7501831054688	291.6638488769531	-375.971435546875	-498.5855407714844	89.7542724609375	-283.2032775878906	-557.6656494140625	82.57086181640625	-269.4512939453125	-584.4688110351562	72.06858062744141	-372.1617736816406	-779.1971435546875	36.61629486083984	-312.4863891601562	-887.1040649414062	504.7312927246094	-84.95157623291016	-841.6385498046875	771.6891479492188	-39.04426193237305	-1090.64306640625	47.49700927734375	-122.9305801391602	-933.8884887695312	384.9987182617188	-88.48214721679688	-858.3164672851562	46.35843658447266	-157.8625946044922	-920.76025390625	50.88669967651367	-189.8572998046875	-940.7035522460938	43.55638885498047	-94.41677093505859	-1145.835571289062	53.1855354309082	-169.9702758789062	
